<svg width="128" height="128" viewBox="0 0 128 128" fill="none" xmlns="http://www.w3.org/2000/svg">
<rect width="128" height="128" fill="white"/>
<circle r="50" transform="matrix(-1 0 0 1 69 68)" fill="black"/>
<circle r="37" transform="matrix(-1 0 0 1 69 68)" fill="white"/>
<rect width="37.8133" height="54.1356" transform="matrix(-0.708185 -0.706027 -0.706027 0.708185 117 31.3592)" fill="white"/>
<rect width="10.3594" height="46.9295" transform="matrix(-0.335032 -0.942207 -0.942207 0.335032 122.217 53.2771)" fill="white"/>
<rect width="10.3594" height="46.9295" transform="matrix(-0.00462822 -0.999989 -0.999989 0.00462822 125 73.3593)" fill="white"/>
<rect width="9.32553" height="48.2997" transform="matrix(0.399798 -0.916603 -0.916603 -0.399798 122.272 96.3101)" fill="white"/>
<rect width="7.97473" height="48.2997" transform="matrix(0.712808 -0.701359 -0.701359 -0.712808 109.201 114.836)" fill="white"/>
<rect width="7.18496" height="48.3413" transform="matrix(0.924866 -0.380293 -0.380293 -0.924866 88.5351 125.661)" fill="white"/>
<rect width="5.47922" height="29.6121" transform="matrix(0.999811 -0.0194573 -0.0194573 -0.999811 66.4292 122.68)" fill="white"/>
<path d="M90.754 23.6571L59.3232 10.0026L63.2134 44.0497L90.754 23.6571Z" fill="black"/>
<path d="M56.5137 86H50.9141V60.0674L46.2783 64.7031L42.3311 60.7559L50.9141 52.1729H56.5137V86ZM76.709 51.6221C78.7285 51.6221 80.5339 52.0046 82.125 52.7695C83.7161 53.5039 85.0778 54.5902 86.21 56.0283C87.3421 57.4665 88.1989 59.2718 88.7803 61.4443C89.3923 63.5863 89.6982 66.0801 89.6982 68.9258C89.6982 71.7715 89.3923 74.2806 88.7803 76.4531C88.1989 78.6257 87.3421 80.431 86.21 81.8691C85.0778 83.3073 83.7161 84.3936 82.125 85.1279C80.5339 85.8623 78.7285 86.2295 76.709 86.2295C74.6895 86.2295 72.8841 85.8623 71.293 85.1279C69.7018 84.3936 68.3402 83.3073 67.208 81.8691C66.1064 80.431 65.2497 78.6257 64.6377 76.4531C64.0563 74.2806 63.7656 71.7715 63.7656 68.9258C63.7656 66.0801 64.0563 63.5863 64.6377 61.4443C65.2497 59.2718 66.1064 57.4665 67.208 56.0283C68.3402 54.5902 69.7018 53.5039 71.293 52.7695C72.8841 52.0046 74.6895 51.6221 76.709 51.6221ZM76.8467 56.166C75.7145 56.166 74.6895 56.3802 73.7715 56.8086C72.8535 57.237 72.0732 57.9714 71.4307 59.0117C70.7881 60.0215 70.2832 61.3372 69.916 62.959C69.5794 64.5807 69.3958 66.5697 69.3652 68.9258C69.3958 70.7923 69.5182 72.4447 69.7324 73.8828C69.9466 75.321 70.2679 76.5449 70.6963 77.5547L80.2432 57.1299C79.2334 56.4873 78.1012 56.166 76.8467 56.166ZM76.5713 81.7314C77.7035 81.7314 78.7285 81.5173 79.6465 81.0889C80.5951 80.6299 81.3906 79.8955 82.0332 78.8857C82.6758 77.876 83.1654 76.5602 83.502 74.9385C83.8691 73.2861 84.068 71.2819 84.0986 68.9258C84.068 65.1009 83.5632 62.1634 82.584 60.1133L72.9912 80.584C73.9398 81.349 75.1331 81.7314 76.5713 81.7314Z" fill="black"/>
</svg>
