<svg width="424" height="228" viewBox="0 0 424 228" fill="none" xmlns="http://www.w3.org/2000/svg">
<g clip-path="url(#clip0)">
<rect width="424" height="228" fill="white"/>
<path d="M231.763 87.35H219.235L195.331 146.75H209.875L214.195 134.87H236.803L241.267 146.75H255.811L231.763 87.35ZM232.195 122.99H218.803L225.427 105.71L232.195 122.99ZM318.594 87.35H305.058V146.75H318.594V87.35Z" fill="white"/>
<path d="M276.617 87.35H263.081V146.75H297.065V134.87H276.617V87.35ZM360.53 87.35H346.994V126.518C346.994 132.494 343.97 134.87 340.082 134.87C336.626 134.87 330.434 134.15 330.434 134.15L326.114 147.11C326.114 147.11 333.458 147.83 341.954 147.83C353.834 147.83 360.53 141.638 360.53 129.974V87.35Z" fill="#323639"/>
<path fill-rule="evenodd" clip-rule="evenodd" d="M317.88 87.35H304.38V100.381H317.88V87.35ZM317.88 103.688H304.38V146.85H317.88V103.688Z" fill="#323639"/>
<path d="M204.639 146.796L225.677 107.032L245.708 146.76L204.639 146.796Z" fill="#323639"/>
<path d="M224.923 87.4872L194.609 146.726L206.699 145.47L212.413 134.303L237.206 134.17L243.25 145.961L255.089 146.726L224.923 87.4872ZM231.481 122.962L218.187 123.02L224.848 110.001L231.481 122.962Z" fill="#323639"/>
<path d="M224.923 87.4872L194.609 146.726H205.875L212.413 134.303L237.206 134.17L243.75 146.726H255.089L224.923 87.4872ZM231.481 122.962L218.187 123.02L224.848 110.001L231.481 122.962Z" fill="#323639"/>
<path d="M209.564 146.917L224.849 117.173L240.124 146.738L209.564 146.917Z" fill="white"/>
<rect width="13.65" height="27.38" transform="matrix(-6.22183e-10 -1 -1 6.22183e-10 238.54 141.635)" fill="#323639"/>
<rect x="337.516" y="100.381" width="13.5125" height="31.5" transform="rotate(-90 337.516 100.381)" fill="#323639"/>
<path d="M135.79 172.588L189.55 209.622L189.55 34.6223L154.55 84.8746L154.55 146.672L107.602 114.575L107.716 153.408L135.79 172.588Z" fill="#2D8FFB"/>
<path d="M154.551 87.8938L189.551 37.8939L189.551 16.6222L154.551 66.8746L154.551 87.8938Z" fill="#393232"/>
<path d="M54.9165 209.963L89.9165 159.963L89.9165 138.691L54.9165 188.943L54.9165 209.963Z" fill="#2D8FFB"/>
<path d="M108.68 53.9286L54.9196 16.894L54.9195 191.894L89.9196 141.642L89.9196 79.844L136.868 111.941L136.754 73.1081L108.68 53.9286Z" fill="#323639"/>
</g>
<defs>
<clipPath id="clip0">
<rect width="424" height="228" fill="white"/>
</clipPath>
</defs>
</svg>
